<svg width="120" height="120" viewBox="0 0 120 120" fill="none" xmlns="http://www.w3.org/2000/svg">
<path d="M51.9914 54.6159C52.0519 54.4631 52.1131 54.2192 52.1131 54.0668C52.1131 53.2436 51.473 52.8469 50.8022 52.8469C50.2229 52.8469 49.8569 53.1215 49.6432 53.762L46.9601 61.9648L43.8802 53.7008C43.6972 53.1828 43.3622 52.8469 42.7212 52.8469C42.0811 52.8469 41.7457 53.1823 41.5631 53.7008L38.5134 61.9648L35.8303 53.762C35.6166 53.1219 35.2506 52.8469 34.6713 52.8469C34.0005 52.8469 33.3603 53.2436 33.3603 54.0668C33.3603 54.2192 33.4208 54.4631 33.4821 54.6159L37.2327 65.7456C37.3549 66.2334 37.7507 66.5692 38.4219 66.5692C39.0927 66.5692 39.4588 66.2032 39.6418 65.715L42.7212 57.2684L45.8317 65.715C46.0147 66.233 46.411 66.5692 47.0516 66.5692C47.6921 66.5692 48.0578 66.2645 48.2408 65.7456L51.9914 54.6159ZM24.0301 64.0242L19.5927 59.6136L24.0301 55.2033C24.5904 54.6422 24.6344 53.7797 24.0301 53.1763C23.4262 52.5724 22.5638 52.6151 22.0035 53.1763L16.6044 58.5754C16.4675 58.7109 16.3594 58.8728 16.2868 59.0512C16.2142 59.2297 16.1784 59.4209 16.1818 59.6136C16.1784 59.8062 16.2141 59.9975 16.2868 60.1759C16.3594 60.3543 16.4674 60.5162 16.6044 60.6517L22.0035 66.0504C22.5638 66.6115 23.4262 66.6547 24.0301 66.0504C24.6336 65.4474 24.5904 64.5849 24.0301 64.0242ZM15.5019 65.033V54.1769C15.5019 53.3843 14.8924 52.7438 14.0688 52.7438C13.2452 52.7438 12.6357 53.3843 12.6357 54.1769V65.033C12.6357 65.8251 13.2146 66.4656 14.0688 66.4656C14.9226 66.4656 15.5019 65.8251 15.5019 65.0326V65.033ZM27.6336 54.2805V65.1353C27.6336 65.9282 28.2133 66.5692 29.0667 66.5692C29.9214 66.5692 30.5006 65.9282 30.5006 65.1353V54.2805C30.5006 53.4875 29.8903 52.8474 29.0671 52.8474C28.2439 52.8474 27.634 53.4875 27.634 54.2805H27.6336ZM55.0221 54.2805V65.1353C55.0221 65.9282 55.6013 66.5692 56.4552 66.5692C57.309 66.5692 57.8883 65.9282 57.8883 65.1353V54.2805C57.8883 53.4875 57.2783 52.8474 56.4552 52.8474C55.632 52.8474 55.0221 53.4875 55.0221 54.2805ZM55.0221 54.2805V65.1353C55.0221 65.9282 55.6013 66.5692 56.4552 66.5692C57.309 66.5692 57.8883 65.9282 57.8883 65.1353V54.2805C57.8883 53.4875 57.2783 52.8474 56.4552 52.8474C55.632 52.8474 55.0221 53.4875 55.0221 54.2805ZM55.0221 54.2805V65.1353C55.0221 65.9282 55.6013 66.5692 56.4552 66.5692C57.309 66.5692 57.8883 65.9282 57.8883 65.1353V54.2805C57.8883 53.4875 57.2783 52.8474 56.4552 52.8474C55.632 52.8474 55.0221 53.4875 55.0221 54.2805ZM84.0293 55.3423C85.3134 55.3423 86.0624 55.8327 86.7793 56.3792C87.0655 56.5769 87.3457 56.6727 87.6349 56.6727C88.3307 56.6727 88.856 56.1392 88.856 55.4321C88.856 55.1023 88.7222 54.8079 88.4473 54.5326C87.4242 53.4737 85.7727 52.8418 84.0293 52.8418C80.0753 52.8418 77.3131 55.6432 77.3131 59.6541C77.3131 63.6655 80.0749 66.4669 84.0297 66.4669C85.7727 66.4669 87.4216 65.8372 88.4399 64.7831C88.7196 64.5025 88.856 64.2064 88.856 63.8766C88.856 63.1695 88.3307 62.636 87.6344 62.636C87.3448 62.636 87.0586 62.7366 86.7586 62.9442C86.0814 63.4613 85.3126 63.9664 84.0293 63.9664C81.6608 63.9664 80.0062 62.1931 80.0062 59.6541C80.0062 57.1151 81.6608 55.3423 84.0293 55.3423ZM97.3734 52.8418C93.5231 52.8418 90.6189 55.7705 90.6189 59.6541C90.6189 63.5382 93.5227 66.4669 97.3734 66.4669C101.224 66.4669 104.128 63.5382 104.128 59.6541C104.128 55.7705 101.224 52.8418 97.3734 52.8418ZM97.3734 64.0337C94.7015 64.0337 93.3038 61.8305 93.3038 59.6541C93.3038 56.7793 95.3511 55.275 97.3734 55.275C100.046 55.275 101.445 57.4782 101.445 59.6541C101.445 62.5294 99.3966 64.0337 97.3734 64.0337ZM118.709 52.9186C118.212 52.9186 117.776 53.2126 117.542 53.7042L113.368 62.4452L113.331 62.3684L109.147 53.6869C108.858 53.1629 108.484 52.9186 107.97 52.9186C107.804 52.9168 107.639 52.9482 107.485 53.0109C107.332 53.0736 107.192 53.1664 107.075 53.2838C106.957 53.4012 106.865 53.5409 106.802 53.6946C106.739 53.8484 106.708 54.013 106.71 54.179V65.1103C106.71 65.8039 107.287 66.3897 107.97 66.3897C108.663 66.3897 109.249 65.8039 109.249 65.1103V59.3019L112.262 65.6869C112.503 66.1661 112.854 66.3897 113.368 66.3897C113.858 66.3897 114.262 66.1311 114.477 65.6805L117.449 59.3032V65.1301C117.449 65.8246 118.014 66.3897 118.709 66.3897C119.426 66.3897 119.987 65.8363 119.987 65.1301V54.198C119.987 53.4331 119.474 52.919 118.709 52.919V52.9186Z" fill="#31DEE9"/>
<path d="M64.7197 72.2484C64.3512 71.9749 63.9043 71.8276 63.4455 71.8284C63.1088 71.829 62.777 71.9083 62.4764 72.06C62.1759 72.2117 61.915 72.4315 61.7145 72.702C59.0193 76.3538 55.2138 79.4156 50.7091 81.5557C46.0252 83.783 40.6714 84.9593 35.2109 84.9593C26.8796 84.9593 19.0658 82.28 13.2095 77.414C10.3981 75.0813 8.19583 72.3731 6.66345 69.3653C5.09525 66.2855 4.29971 63.0183 4.29885 59.6548C4.29971 56.2914 5.09525 53.0238 6.66345 49.943C8.96978 45.4146 12.8145 41.5482 17.7824 38.7623C22.9308 35.8746 28.9606 34.3482 35.2222 34.3482C40.6817 34.3482 46.0485 35.531 50.7427 37.7687C55.257 39.92 59.0646 42.9947 61.7542 46.6607C61.9546 46.9324 62.2159 47.1534 62.5171 47.3058C62.8183 47.4582 63.1511 47.5378 63.4886 47.5383C63.9456 47.5391 64.3908 47.393 64.7586 47.1217C65.2175 46.784 65.5237 46.278 65.61 45.7148C65.6963 45.1516 65.5558 44.5771 65.2191 44.1174C62.1086 39.8807 57.7429 36.3433 52.5924 33.8881C47.3245 31.3771 41.318 30.0502 35.223 30.0498C25.8898 30.0515 17.097 33.0835 10.4633 38.5866C7.2 41.2961 4.63295 44.4602 2.83338 47.992C0.952663 51.6805 -0.000862724 55.6042 5.85694e-07 59.6544C-0.000862724 63.7046 0.952663 67.6279 2.83338 71.3164C5.53036 76.6055 9.97295 81.0934 15.6799 84.2946C21.4692 87.541 28.2268 89.2577 35.2222 89.2581C41.3012 89.2581 47.2947 87.9373 52.5544 85.438C57.695 82.994 62.0581 79.4725 65.173 75.2544C65.5108 74.7954 65.6528 74.2211 65.5679 73.6575C65.4829 73.0939 65.1779 72.587 64.7197 72.2479" fill="#31DEE9"/>
<path d="M68.1579 57.2871C67.5304 57.2879 66.9288 57.5376 66.4851 57.9814C66.0414 58.4251 65.7918 59.0268 65.7911 59.6543C65.7918 60.2818 66.0414 60.8835 66.4851 61.3273C66.9288 61.771 67.5304 62.0207 68.1579 62.0215C68.7854 62.0207 69.387 61.771 69.8307 61.3273C70.2744 60.8835 70.524 60.2818 70.5247 59.6543C70.524 59.0268 70.2744 58.4251 69.8307 57.9814C69.387 57.5376 68.7854 57.2879 68.1579 57.2871Z" fill="#31DEE9"/>
</svg>
