<svg width="121" height="120" viewBox="0 0 121 120" fill="none" xmlns="http://www.w3.org/2000/svg">
<path d="M62.8965 54.8326H58.2025V58.3116H62.8965V54.8326ZM65.1678 70.3605L62.8965 68.0581V61.5349H58.2025V65.014H59.8681V70.386H47.7545V65.014H50.0258V54.8326H47.7545V49.4605H68.0448L71.4265 52.9395V57.2884L68.3981 59.5395L71.4265 61.8419V65.7558H73.3445V70.3605H65.1678ZM71.4769 32.3721V43.2953L66.9344 47.9H54.5684L50.0258 43.2953V32.3721H47.7545V27H60.2214V32.3721H58.253V42.5535H65.193V32.3721H63.5022V27H73.3949V32.3721H71.4517H71.4769ZM92.3981 32.3721H85.458V35.9535H92.4233V32.3721H92.3981ZM97.3192 39.6116H85.458V42.5023H87.6536V47.8744H74.9848V42.5023H77.2561V32.3721H74.9848V27H96.9407L100.6 30.5814V36.3116L97.3192 39.586V39.6116ZM95.9564 70.3605H80.3602L74.9848 64.9884V54.807L80.3602 49.4349H92.6504L94.1646 51.4047L95.6788 49.4605H100.6V58.2605H94.1646V54.807H83.3634V65.0395H94.1646V61.5349H100.6V65.7558L95.9564 70.3605ZM71.1236 92.9233H47.7545V87.5512H50.0258V77.3953H47.7545V72.0233H60.4738V77.3953H58.2025V87.5767H66.9848V80.8233H73.3949V90.4419L71.1236 92.9233ZM98.3287 92.9233H74.9596V87.5512H77.1804V77.3953H74.9596V72.0233H87.6284V77.3953H85.3571V87.5767H94.1899V80.8233H100.6V90.4419L98.3287 92.9233ZM42.2025 47.9H27.9186L26.2277 46.0581L24.7135 47.9H20.6V41.5047H26.3539V43.2953H37.1299V40.3023H24.3098L20.6 36.7977V31.6814L24.8902 27H37.7104L39.4012 28.8419L40.9154 27H45.029V33.3953H39.2246V31.6047H29.5337V34.6233H42.0511L46.2404 38.6395V43.5L42.2025 47.9ZM43.9186 70.3605H20.6V64.9884H22.8713V54.8837H20.6V49.5116H43.9186L46.1899 52.0698V59.2326L39.7798 59.2837V54.8837H31.0479V57.9535H34.8334V61.8419H31.0479V65.014H39.7798V60.6651H46.1899V67.8279L43.9186 70.386V70.3605ZM43.9186 92.8977H20.6V87.5256H22.8713V77.3953H20.6V72.0233H43.9186L46.1899 74.5814V81.7442H39.7798V77.3953H31.0479V80.5419H34.8334V84.3791H31.0479V87.6279H39.7798V83.2791H46.1899V90.4419L43.9186 93" fill="#31DEE9"/>
</svg>
