<svg width="121" height="120" viewBox="0 0 121 120" fill="none" xmlns="http://www.w3.org/2000/svg">
<path fill-rule="evenodd" clip-rule="evenodd" d="M89.1076 36.3415L99.5967 36.3529V77.962L94.8519 84.2388H84.7793V83.7392C82.4393 84.471 80.1756 84.8421 78.0438 84.8421C75.1882 84.8421 73.7757 84.5097 71.9103 83.795C69.9539 83.0461 68.4073 81.9023 67.2064 80.3146L64.2109 84.248H60.8386C60.653 85.1449 60.2432 86.1932 59.9952 86.7394C59.6218 87.5669 59.3978 88.0266 59.1451 88.4558C57.4742 91.2873 57.1192 91.8075 55.3163 94.102C54.4923 95.1491 53.5134 96.2019 52.4128 97.0088C49.4081 99.2135 45.2447 100.241 39.3105 100.241C32.6593 100.241 28.6768 99.2306 25.9965 96.8621C22.6617 93.9145 22.203 89.6737 22.203 85.5297C22.203 82.6525 22.837 80.4103 24.2961 78.3844C24.3385 78.3209 25.2078 77.0745 25.8532 76.1492L25.8551 76.1464L25.8565 76.1443C26.2284 75.6112 26.525 75.1858 26.545 75.1567C26.4165 74.3872 26.3527 73.5461 26.3527 72.6072C26.3527 71.8583 26.5051 70.9672 27.2358 69.0892C26.38 68.3629 25.6311 67.5014 25.0051 66.5283C23.4515 64.1097 22.6639 60.973 22.6639 57.208C22.6639 53.2872 23.5472 50.0618 25.2841 47.575C25.3327 47.5018 27.4563 44.46 28.6545 42.7437L28.6633 42.7311L28.6759 42.7131C29.1231 42.0724 29.4365 41.6236 29.4554 41.5963C29.9927 40.7792 30.6175 40.037 31.33 39.3747C33.9636 36.9254 37.6797 35.6826 42.3745 35.6826C43.516 35.6826 44.439 35.7042 45.3769 35.7838C46.7437 35.8987 49.2067 36.3631 49.2067 36.3631H54.0974L54.1018 25.9422L58.5463 20H68.9215V36.3529H77.9914V51.0451L89.1076 36.3415ZM56.3127 69.779C57.6478 70.7464 58.6301 72.1032 59.2321 73.8104C59.7704 75.3468 60.0356 77.2363 60.0352 79.5864C60.0352 81.7363 59.7085 83.5551 59.0427 85.1451C58.3315 86.8341 57.2264 88.2396 55.7547 89.3186C53.0675 91.2922 49.232 92.2107 43.6904 92.2107C37.5034 92.2107 33.8681 91.3321 31.5361 89.271C28.7227 86.7842 28.3357 82.984 28.3357 79.252C28.3357 74.5868 30.316 72.3332 33.0726 70.1696C33.018 70.0238 32.9657 69.8737 32.9178 69.7177C32.6252 68.7753 32.4852 67.6667 32.4852 66.3282C32.4852 65.6726 32.6834 64.7633 33.6531 62.4471C33.6646 62.4191 33.6764 62.3912 33.6883 62.3633C33.709 62.3143 33.7298 62.2655 33.7486 62.2162C32.5966 61.4752 31.6282 60.4999 30.8587 59.3025C29.4895 57.1707 28.7964 54.3538 28.7964 50.9303C28.7964 46.413 30.0496 42.9566 32.5227 40.6563C34.8217 38.519 38.136 37.4343 42.3733 37.4343C44.1067 37.4343 45.8503 37.5891 47.5644 37.8543C47.9446 37.9133 48.3167 37.9942 48.6764 38.0966H58.107V44.7887H55.5292C55.5644 44.8833 55.5987 44.9788 55.6317 45.0755C55.8594 45.7311 56.4125 48.5572 56.4125 50.9301C56.4125 55.6945 55.1844 59.0714 52.6567 61.2577C50.3155 63.2814 46.9648 64.2237 42.1096 64.2237C41.7876 64.2237 40.9464 64.184 40.0871 64.1225C39.7106 65.1663 39.4156 66.0757 39.3531 66.4227C39.3531 66.8097 39.3633 67.0999 39.3826 67.2922C39.6103 67.357 40.0588 67.448 40.8987 67.513C42.2236 67.6164 44.1619 67.6313 46.0625 67.6313C50.4353 67.6313 53.8532 67.9967 56.3127 69.779ZM42.3079 44.205C39.779 44.205 38.1093 44.6421 37.2034 45.5413C36.2541 46.4837 35.7954 48.2454 35.7954 50.9301C35.7954 53.5799 36.2462 55.3006 37.1737 56.1884C38.0741 57.0524 39.7051 57.4552 42.3079 57.4552C45.2489 57.4552 47.0575 57.0455 48.0021 56.1668C49.2086 55.0424 49.3463 52.6399 49.3463 50.9303C49.3463 48.1749 48.9092 46.47 47.9713 45.5651C47.022 44.6488 45.1703 44.205 42.3079 44.205ZM43.7568 85.4412C47.3271 85.4412 49.8449 84.9369 51.2424 83.9445C52.0469 83.3707 52.9701 82.3614 52.9699 79.5866C52.9699 76.0118 52.1198 75.4314 51.7966 75.2116C50.8133 74.5379 48.7408 74.4012 45.9318 74.4012C43.8204 74.4012 40.2444 74.2829 38.6613 74.2283C35.6747 76.3862 35.3333 77.2171 35.3333 79.1837C35.3333 81.9642 35.6702 83.3891 36.4999 84.1107C37.5266 85.0054 39.902 85.4412 43.7568 85.4412ZM90.9115 38.1042V67.6868C89.3135 68.5495 86.0278 70.0416 82.422 70.0416C78.7709 70.0416 77.9731 69.1287 77.4676 68.1933C76.8303 67.0096 76.2385 64.9199 76.2385 57.6928V38.1042H69.306V57.826C69.306 64.1768 69.7124 69.0605 71.6961 72.2542C72.7558 73.9581 74.2045 75.1451 76.1281 75.8803C77.7886 76.5154 79.7894 76.8125 82.422 76.8125C85.6532 76.8125 88.6932 75.8826 90.9115 74.963V76.2082H97.844V38.1042H90.9115ZM60.2361 71.9899V21.7522H67.1696V76.2022H64.4472C62.1209 76.2022 60.2361 74.3162 60.2361 71.9899Z" fill="#31DEE9"/>
</svg>
