<svg width="121" height="120" viewBox="0 0 121 120" fill="none" xmlns="http://www.w3.org/2000/svg">
<path d="M45.6216 86.7427V94.219C45.6216 96.3426 44.5678 97.4758 42.653 97.4758C40.7275 97.4758 39.6674 96.3099 39.6674 94.1284V86.7509H37.0184V94.219C37.0184 97.8936 39.0594 99.9993 42.6181 99.9993C46.2105 99.9993 48.2707 97.8532 48.2707 94.1113V86.7427H45.6216ZM55.3681 86.7427L49.6145 99.7957H52.3186L53.4292 97.2678L53.5087 97.0783H59.4858L60.6581 99.7957H63.4357L57.7356 86.82L57.6844 86.7427L55.3681 86.7427ZM71.1192 86.7427L68.1544 95.724L65.2684 86.7494H62.4491L67 99.8039H69.1937L72.1645 91.2282L75.133 99.8039H77.3453L81.8849 86.7494H79.1378L76.2458 95.724L73.2802 86.7427H71.1192ZM97.0433 86.7427V99.7846H99.6575V86.7427H97.0433ZM22.0621 86.7435V99.8032H24.7119V94.4991H30.695V99.8032H33.3456V86.7435H30.695V92.0119H24.7119V86.7435H22.0621ZM84.0215 86.7523V99.7942H93.8839V97.4163H86.6356V94.1826H91.4554V91.8039H86.6356V89.1303H93.6313V86.7523H84.0215ZM56.4905 90.0477L58.3797 94.4202H58.3731L58.5016 94.7219H54.4938L54.6208 94.4202H54.6185L56.4905 90.0477Z" fill="#31DEE9"/>
<path d="M55.0588 20.0002C54.0077 20.0931 51.1674 20.7396 51.1674 20.7396H51.1663C44.7644 22.3943 43.2513 28.2039 43.2513 28.2039C42.9387 29.1808 42.7966 30.182 42.7549 31.1252V32.409C42.8398 34.3925 43.2809 35.8735 43.2809 35.8735C45.4194 45.3557 55.9337 60.9363 58.1935 64.2093C58.3538 64.3683 58.4822 64.3109 58.4822 64.3109C58.7261 64.2436 58.707 64.0096 58.707 64.0096L58.7116 64.0108C62.1921 29.2216 55.0588 20.0002 55.0588 20.0002L55.0588 20.0002ZM66.5592 20.0002C66.5592 20.0002 59.3947 29.2265 62.8779 64.0359H62.8825C62.9095 64.2569 63.0663 64.3029 63.0663 64.3029C63.2994 64.3932 63.4189 64.1693 63.4189 64.1693L63.42 64.1715C65.7377 60.815 76.1921 45.3192 78.3211 35.8734C78.3211 35.8734 79.4755 31.3016 78.3611 28.2037C78.3611 28.2037 76.7785 22.3042 70.3685 20.7452C70.3685 20.7452 68.5213 20.2762 66.5594 20L66.5592 20.0002ZM33.5128 30.4439C33.5128 30.4439 27.413 36.2334 27.1098 42.3712H27.1122V43.3012C27.1168 43.3713 27.1204 43.4421 27.1248 43.5135C27.3876 48.4628 31.1108 51.392 31.1108 51.392C37.1098 57.2387 51.6356 64.6204 55.011 66.2953C55.0583 66.313 55.2327 66.37 55.3351 66.2406C55.3351 66.2406 55.3884 66.2001 55.4127 66.1275V65.9734C55.4103 65.9645 55.4056 65.9557 55.4012 65.946H55.4024C46.1587 45.7526 33.5129 30.4437 33.5129 30.4437L33.5128 30.4439ZM88.0904 30.4439C88.0904 30.4439 75.4827 45.7047 66.2431 65.8571L66.2467 65.856C66.2467 65.856 66.1376 66.0896 66.314 66.2406C66.314 66.2406 66.3666 66.2803 66.4395 66.2964H66.5673C66.5903 66.2898 66.6149 66.281 66.6392 66.2644V66.2666C70.1063 64.5459 84.5197 57.2126 90.4903 51.3929C90.4903 51.3929 94.2714 48.3565 94.4695 43.4813C94.9061 36.7102 88.0905 30.4437 88.0905 30.4437L88.0904 30.4439ZM99.438 50.4916C99.438 50.4916 78.8836 61.5221 68.2561 68.6906L68.2573 68.6918L68.2597 68.694C68.2597 68.694 68.0668 68.8203 68.1342 69.0466C68.1342 69.0466 68.235 69.2293 68.3818 69.2293V69.2304C72.1884 69.2371 86.5928 69.2532 86.954 69.1858C86.954 69.1858 88.8165 69.1114 91.118 68.2273C91.118 68.2273 96.2416 66.5983 98.9029 60.7813C98.9029 60.7813 100.119 58.3489 100.137 54.9317V54.7869C100.128 53.4691 99.942 52.0102 99.4381 50.4916H99.438ZM22.1595 50.5431C20.2894 56.3325 22.807 60.9976 22.8111 61.0051C25.4348 66.5488 30.4431 68.2285 30.4431 68.2285C32.7553 69.1785 35.0681 69.2442 35.0681 69.2442C35.4293 69.3102 49.4499 69.2508 53.2067 69.2331C53.3657 69.232 53.4532 69.0721 53.4532 69.0721C53.4642 69.0545 53.4739 69.0368 53.4783 69.0207V68.8758C53.4472 68.7789 53.3642 68.7105 53.3642 68.7105L53.3666 68.7093C42.7444 61.5431 22.1597 50.5433 22.1597 50.5433L22.1595 50.5431ZM52.7776 71.013L28.5978 71.8608C31.22 76.5352 35.6361 80.1681 40.2364 79.0523C43.4111 78.2587 50.6031 73.2421 52.9773 71.547L52.9693 71.5404C53.154 71.3745 53.088 71.2414 53.088 71.2414C53.0273 71.0243 52.7776 71.0245 52.7776 71.0245L52.7776 71.013ZM68.7924 71.0306L68.79 71.0394C68.79 71.0394 68.5777 71.0664 68.5184 71.2254C68.5184 71.2254 68.4668 71.4427 68.6097 71.5506L68.6073 71.5528C70.9223 73.2129 77.94 78.1192 81.3208 79.0718C81.3208 79.0718 81.833 79.2461 82.6913 79.2772H83.2071C85.4722 79.1977 89.4182 78.0341 93.0039 71.8734L68.7924 71.0306Z" fill="#31DEE9"/>
</svg>
