<svg width="120" height="120" viewBox="0 0 120 120" fill="none" xmlns="http://www.w3.org/2000/svg">
<g clip-path="url(#clip0_119_280)">
<path d="M11.5855 51.8126C11.2312 51.2138 10.5703 50.8211 9.78242 50.8211C8.83724 50.8211 7.97405 51.3896 7.55894 52.192C7.41578 52.4633 7.32772 52.7602 7.29984 53.0657L7.05661 55.8193C7.05661 55.8193 7.99648 55.8391 8.41819 55.8391C11.8604 55.8391 11.8658 53.0657 11.8658 53.0657C11.914 52.6285 11.8154 52.1876 11.5855 51.8126L11.5855 51.8126ZM16.8244 57.6317C16.5362 57.4934 16.2201 57.4229 15.9004 57.4255H2.48948C2.02601 57.4214 1.57165 57.5543 1.18343 57.8075C0.857888 58.0068 0.58257 58.2783 0.378785 58.6011C0.175 58.9238 0.0482145 59.2891 0.00824082 59.6687C-0.0723962 60.6033 0.428601 61.4018 1.21778 61.7415C1.47952 61.8539 1.77167 61.92 2.09024 61.92H6.51734L6.13001 66.273C6.10358 66.5889 6.13529 66.8784 6.22916 67.1507C6.50544 67.9571 7.26554 68.5242 8.2094 68.5242C9.13078 68.5242 9.97151 67.9769 10.3998 67.2022C10.5584 66.9193 10.6629 66.6127 10.6906 66.2729L11.078 61.9199H15.5039C15.8238 61.9199 16.1225 61.8538 16.4067 61.7441C17.2541 61.4017 17.9005 60.6033 17.9851 59.6687C18.0279 59.2508 17.9391 58.8299 17.731 58.4649C17.5229 58.0999 17.2059 57.809 16.8245 57.633L16.8244 57.6317ZM35.7239 59.1944C37.5891 58.1091 38.6427 56.2954 38.8673 53.789C39.0589 51.5946 38.3953 49.8893 36.8844 48.7208C35.4078 47.5787 33.573 47.001 31.4316 47.001H24.3699C24.354 47.001 24.3382 47.0037 24.3236 47.0049C23.8464 47.01 23.3802 47.1488 22.9779 47.4055C22.733 47.559 22.5139 47.7504 22.3289 47.9726C21.9748 48.3643 21.7569 48.86 21.7076 49.3857L19.8238 70.5918C19.7723 71.1681 19.9283 71.6718 20.2653 72.1027C20.4015 72.2825 20.5548 72.4438 20.7412 72.5747C21.1021 72.8311 21.5304 72.9633 22.0143 72.9739C22.0314 72.9739 22.0433 72.9805 22.0632 72.9805H30.456C32.8407 72.9805 34.9638 72.379 36.7656 71.1893C38.6149 69.9718 39.6566 68.1635 39.8655 65.8223C40.0241 64.0641 39.6804 62.5598 38.8476 61.3622C38.1562 60.3628 37.1066 59.6304 35.7225 59.1942L35.7239 59.1944ZM26.1164 51.1385H30.365C31.478 51.1385 32.3822 51.424 33.0432 51.9845C33.6909 52.5305 33.9646 53.2919 33.876 54.3098C33.7649 55.5127 33.3525 56.3865 32.6439 56.9113C31.8944 57.4678 31.0286 57.7375 30.0001 57.7375H25.5295L26.1164 51.1385ZM33.4619 67.9757C32.5445 68.5507 31.3706 68.8376 29.9747 68.8376H24.5456L25.1312 62.2175H30.7493C32.247 62.2175 33.3865 62.314 34.0541 62.9022C34.7547 63.5209 35.0217 64.2731 34.9318 65.3042C34.8194 66.5587 34.3383 67.4364 33.4618 67.9757L33.4619 67.9757ZM50.2499 54.9365C48.5407 54.939 46.8467 55.2572 45.2531 55.875C43.7408 56.4712 42.9357 57.226 42.8564 58.117C42.8128 58.6101 42.945 59.0252 43.2477 59.3517C43.5504 59.6769 43.9576 59.8434 44.4559 59.8434C44.6807 59.8434 45.1367 59.7813 46.4758 59.2301C47.5453 58.7925 48.5697 58.5691 49.5214 58.5691C50.5195 58.5691 51.2095 58.8361 51.6273 59.3768C51.9921 59.8633 52.1322 60.6154 52.0437 61.6108L52.0357 61.7034C48.8485 61.9744 46.5655 62.3908 45.0667 62.9737C42.6675 63.9004 41.3548 65.4523 41.167 67.5793C41.0177 69.2449 41.5213 70.5761 42.6608 71.5318C43.7739 72.4704 45.1949 72.9463 46.8776 72.9463C48.6225 72.9463 50.1731 72.6435 51.4964 72.0474C51.8533 72.633 52.472 72.9463 53.3074 72.9463C53.9221 72.9463 54.48 72.7295 54.9625 72.3078C55.4291 71.915 55.7205 71.3529 55.7728 70.7452L56.5831 61.6108C56.7616 59.6095 56.3967 58.0324 55.4992 56.9179C54.4099 55.6013 52.6438 54.9364 50.2498 54.9364L50.2499 54.9365ZM51.4169 68.671C50.4096 69.1918 49.3864 69.4549 48.3698 69.4549C47.5092 69.4549 46.7901 69.2738 46.2375 68.9129C45.7299 68.5824 45.5078 68.1211 45.5633 67.5037C45.7153 65.8117 48.9143 65.2208 51.7379 65.0317L51.4167 68.6695L51.4169 68.671ZM67.464 54.9364C66.1796 54.9378 64.9042 55.1499 63.6885 55.5643L64.2543 49.2376C64.2847 48.9222 64.2394 48.6041 64.1221 48.3097C63.8312 47.539 63.0976 47.0049 62.1815 47.0049C61.3976 47.0049 60.6719 47.3923 60.2118 47.9884C59.9223 48.3533 59.7545 48.7684 59.7148 49.2376L57.8562 70.1239C57.7372 71.4921 58.3651 72.3672 59.6844 72.6488C60.7221 72.8445 62.1194 72.9449 63.8298 72.9449C67.5273 72.9449 70.4262 71.9085 72.4473 69.8687C73.9701 68.3485 74.8532 66.3524 75.066 63.9386C75.3053 61.2326 74.7316 59.0435 73.366 57.4241C71.9648 55.7717 69.9793 54.9363 67.4635 54.9363L67.464 54.9364ZM69.093 67.3029C67.9971 68.5058 66.4967 69.0954 64.5033 69.0954C63.6837 69.0954 63.0095 69.0663 62.4927 69.0201L63.3413 59.4825C64.2871 59.0719 65.3071 58.86 66.3381 58.8598C67.6442 58.8598 68.666 59.2855 69.4524 60.1632C70.2548 61.0978 70.5919 62.3722 70.4544 63.9387C70.3315 65.303 69.8741 66.4345 69.0929 67.3029L69.093 67.3029ZM86.0252 54.9366C84.7495 54.9366 83.4791 55.1482 82.2551 55.5645L82.8155 49.2378C82.8444 48.9268 82.8029 48.6132 82.6939 48.3204C82.4057 47.5471 81.6681 47.0051 80.7441 47.0051C79.9589 47.0051 79.2318 47.3951 78.7745 47.9939C78.487 48.3491 78.3129 48.7825 78.2748 49.2378L76.4228 70.1241C76.2972 71.4923 76.929 72.3674 78.247 72.649C79.2847 72.8447 80.6793 72.9451 82.3966 72.9451C86.0875 72.9451 88.9876 71.9087 91.0114 69.8689C92.5369 68.3487 93.4173 66.3526 93.6314 63.9388C93.8707 61.2329 93.301 59.0437 91.9262 57.4243C90.5276 55.7719 88.538 54.9365 86.0252 54.9365L86.0252 54.9366ZM87.6572 67.3031C86.56 68.506 85.0583 69.0956 83.0663 69.0956C82.2453 69.0956 81.5725 69.0665 81.0569 69.0203L81.9043 59.4827C82.8499 59.0716 83.87 58.8597 84.9011 58.86C86.2098 58.86 87.2277 59.2857 88.0115 60.1635C88.8179 61.098 89.1549 62.3724 89.0161 63.939C88.8945 65.3032 88.4358 66.4347 87.6572 67.3032L87.6572 67.3031ZM104.613 54.9369C101.93 54.9369 99.6851 55.771 97.9415 57.4207C96.1781 59.0864 95.1708 61.2094 94.9487 63.7237C94.7107 66.4072 95.332 68.6149 96.798 70.279C98.305 72.0464 100.562 72.9453 103.492 72.9453C105.385 72.9453 107.17 72.603 108.804 71.9275C110.159 71.3524 110.884 70.6161 110.964 69.7265C110.991 69.4912 110.971 69.2529 110.905 69.0254C110.839 68.798 110.728 68.586 110.579 68.4019C110.175 67.8996 109.625 67.6974 108.839 67.8824C108.65 67.9287 108.482 67.9974 108.341 68.0754C108.199 68.1568 108.051 68.2292 107.9 68.2922C107.681 68.39 107.494 68.4799 107.347 68.5421C106.278 69.0047 105.179 69.24 104.082 69.24C102.482 69.24 101.319 68.7417 100.513 67.7291C99.9971 67.0814 99.6957 66.2829 99.6191 65.3391H109.748C110.452 65.3391 111.046 65.1011 111.506 64.6279C111.954 64.1692 112.212 63.5849 112.274 62.8869C112.472 60.6608 111.92 58.7877 110.627 57.3057C109.167 55.7353 107.145 54.9368 104.613 54.9368L104.613 54.9369ZM99.9002 62.0327C100.099 61.1814 100.487 60.4544 101.061 59.8648C101.874 59.0676 102.941 58.6777 104.318 58.6777C105.547 58.6777 106.463 59.0439 107.107 59.7881C107.607 60.4134 107.855 61.1471 107.862 62.0328H99.9L99.9002 62.0327ZM119.988 49.2378C120.035 48.8028 119.938 48.3643 119.712 47.9899C119.358 47.395 118.702 47.005 117.917 47.005C116.977 47.005 116.12 47.5695 115.704 48.3679C115.561 48.6379 115.474 48.9336 115.448 49.2378L113.537 70.7454C113.509 71.039 113.543 71.3353 113.636 71.6152C113.91 72.4176 114.669 72.9807 115.609 72.9807C116.526 72.9807 117.36 72.4387 117.79 71.6681C117.946 71.3865 118.048 71.0838 118.077 70.7454L119.988 49.2378Z" fill="#31DEE9"/>
</g>
<defs>
<clipPath id="clip0_119_280">
<rect width="120" height="120" fill="white" transform="translate(-0.000244141)"/>
</clipPath>
</defs>
</svg>
