<svg width="121" height="120" viewBox="0 0 121 120" fill="none" xmlns="http://www.w3.org/2000/svg">
<path d="M56.3845 96.0999C57.2121 96.0999 57.4879 95.8237 57.4879 95.2712C57.4879 94.7187 57.2121 94.4425 56.6604 94.4425H56.3845H55.8328C45.3506 92.2326 37.351 82.8405 37.351 71.5148C37.351 66.8188 38.7302 62.399 41.2128 58.5317C41.4887 57.9792 42.3162 57.703 42.8679 58.2555L59.6947 75.3822C59.9705 75.6584 60.2464 75.6584 60.5222 75.6584C60.7981 75.6584 61.0739 75.6584 61.3498 75.3822L78.4524 58.5317C79.0041 57.9792 79.5558 57.9792 80.1075 58.8079C82.5901 62.399 83.9694 67.0951 83.9694 71.7911C83.9694 77.8683 81.7626 83.1168 78.1765 87.2603L77.9007 87.5366V87.8128C77.9007 88.3653 78.1765 88.6415 78.7282 88.6415C78.7282 88.6415 78.7282 88.6415 79.0041 88.6415C79.0041 88.6415 79.2799 88.6415 79.2799 88.3653C101.624 78.697 100.796 56.5981 100.796 56.5981C100.796 43.6149 94.7274 32.2892 85.3486 25.1071C85.0727 24.8308 84.2452 24.8308 83.9694 25.1071L61.3498 47.4822C61.0739 47.7585 60.2464 47.7585 59.9705 47.4822L37.6268 25.1071C37.351 24.8308 36.7993 24.8308 36.2476 25.1071C26.8687 32.2892 20.8 43.8912 20.8 56.5981C20.8 77.0396 36.2476 94.1662 56.3845 96.0999Z" fill="#31DEE9"/>
</svg>
