<svg width="96" height="96" viewBox="0 0 96 96" fill="none" xmlns="http://www.w3.org/2000/svg">
<path d="M38.2781 49.8398L26.0781 62.0398" stroke="#31DEE9" stroke-width="5" stroke-miterlimit="10" stroke-linecap="round" stroke-linejoin="round"/>
<path d="M26.1992 49.9609L38.3992 62.1609" stroke="#31DEE9" stroke-width="5" stroke-miterlimit="10" stroke-linecap="round" stroke-linejoin="round"/>
<path d="M54.1199 56H54.1599" stroke="#31DEE9" stroke-width="5" stroke-miterlimit="10" stroke-linecap="round" stroke-linejoin="round"/>
<path d="M69.8799 56H69.9199" stroke="#31DEE9" stroke-width="5" stroke-miterlimit="10" stroke-linecap="round" stroke-linejoin="round"/>
<path d="M62 63.9198V63.8398" stroke="#31DEE9" stroke-width="5" stroke-miterlimit="10" stroke-linecap="round" stroke-linejoin="round"/>
<path d="M62 48.1596V48.0796" stroke="#31DEE9" stroke-width="5" stroke-miterlimit="10" stroke-linecap="round" stroke-linejoin="round"/>
<path opacity="0.4" fill-rule="evenodd" clip-rule="evenodd" d="M54.6113 8.02585C54.6253 6.60575 53.4855 5.44314 52.0654 5.42908C50.6453 5.41502 49.4827 6.55484 49.4687 7.97493L49.4288 12.0018C49.4097 12.823 48.7686 13.429 48 13.429H47.88C44.2263 13.429 41.3485 16.414 41.3485 20.0004C41.3485 20.4909 41.4027 20.9692 41.5054 21.4294H36C25.7463 21.4294 17.8999 23.4644 12.6817 28.6826C7.4635 33.9008 5.42853 41.7473 5.42853 52.0009V60.0009C5.42853 70.2545 7.4635 78.101 12.6817 83.3192C17.8999 88.5373 25.7463 90.5723 36 90.5723H60C70.2536 90.5723 78.1001 88.5373 83.3182 83.3192C88.5364 78.101 90.5714 70.2545 90.5714 60.0009V52.0009C90.5714 41.7473 88.5364 33.9008 83.3182 28.6826C78.1001 23.4644 70.2536 21.4294 60 21.4294H51.9705C51.9537 21.4291 51.9369 21.429 51.92 21.429H47.92C47.1401 21.429 46.4914 20.7802 46.4914 20.0004C46.4914 19.1868 47.1337 18.5718 47.88 18.5718H48C51.6288 18.5718 54.506 15.6618 54.571 12.0871L54.5713 12.0658L54.6113 8.02585ZM10.5714 52.0009C10.5714 42.2545 12.5364 36.101 16.3182 32.3191C20.1001 28.5373 26.2536 26.5723 36 26.5723H60C69.7463 26.5723 75.8999 28.5373 79.6817 32.3191C83.4635 36.101 85.4285 42.2545 85.4285 52.0009V60.0009C85.4285 69.7473 83.4635 75.9008 79.6817 79.6826C75.8999 83.4644 69.7463 85.4294 60 85.4294H36C26.2536 85.4294 20.1001 83.4644 16.3182 79.6826C12.5364 75.9008 10.5714 69.7473 10.5714 60.0009V52.0009Z" fill="#31DEE9"/>
</svg>
