<svg width="80" height="80" viewBox="0 0 80 80" fill="none" xmlns="http://www.w3.org/2000/svg">
<rect width="80" height="80" rx="40" fill="white" fill-opacity="0.05"/>
<g clip-path="url(#clip0_113_266)">
<path d="M22.7904 51.3936C21.415 51.3936 20.0007 52.4957 20.0007 54.4249C20.0007 56.1885 21.2442 57.4342 22.7904 57.4342C24.0667 57.4342 24.6356 56.5775 24.6356 56.5775V56.9509C24.6356 57.1274 24.8024 57.3244 25.009 57.3244H25.9316V51.5254H24.6356V52.2612C24.6356 52.2612 24.062 51.3936 22.7904 51.3936V51.3936ZM23.0213 52.5793C24.1535 52.5793 24.7474 53.5751 24.7474 54.4244C24.7474 55.3705 24.0423 56.2689 23.0237 56.2689C22.1722 56.2689 21.3193 55.5793 21.3193 54.412C21.3193 53.3582 22.0533 52.5793 23.0213 52.5793Z" fill="#31DEE9"/>
<path d="M27.7328 57.3242C27.5337 57.3242 27.3594 57.1814 27.3594 56.9507V51.5252H28.6554V52.2428C28.949 51.8014 29.5228 51.3916 30.4034 51.3916C31.8428 51.3916 32.6092 52.539 32.6092 53.6119V57.3242H31.7086C31.4725 57.3242 31.3133 57.1265 31.3133 56.9288V53.8975C31.3133 53.3028 30.9489 52.5805 30.1061 52.5805C29.1968 52.5805 28.6554 53.4398 28.6554 54.2489V57.3242L27.7328 57.3242Z" fill="#31DEE9"/>
<path d="M36.3873 51.3937C35.0119 51.3937 33.5977 52.4958 33.5977 54.425C33.5977 56.1886 34.8411 57.4343 36.3873 57.4343C37.6636 57.4343 38.2325 56.5777 38.2325 56.5777V56.9511C38.2325 57.1276 38.3993 57.3245 38.6059 57.3245H39.5285V48.626H38.2325V52.2613C38.2325 52.2613 37.6589 51.3937 36.3873 51.3937V51.3937ZM36.6182 52.5795C37.7504 52.5795 38.3444 53.5752 38.3444 54.4246C38.3444 55.3706 37.6392 56.269 36.6206 56.269C35.7691 56.269 34.9162 55.5794 34.9162 54.4121C34.9162 53.3584 35.6502 52.5795 36.6182 52.5795Z" fill="#31DEE9"/>
<path d="M41.3297 57.3244C41.1306 57.3244 40.9563 57.1816 40.9563 56.9509V51.5254H42.2523V52.4919C42.4754 51.9504 42.9567 51.4595 43.8119 51.4595C44.0503 51.4595 44.2732 51.5034 44.2732 51.5034V52.8433C44.2732 52.8433 43.9948 52.7335 43.6581 52.7335C42.7488 52.7335 42.2523 53.5929 42.2523 54.402V57.3244H41.3297Z" fill="#31DEE9"/>
<path d="M52.1368 57.3244C51.9377 57.3244 51.7634 57.1816 51.7634 56.951V51.5254H53.0594V57.3244L52.1368 57.3244Z" fill="#31DEE9"/>
<path d="M56.8595 51.3937C55.4841 51.3937 54.0698 52.4958 54.0698 54.425C54.0698 56.1886 55.3133 57.4343 56.8595 57.4343C58.1358 57.4343 58.7046 56.5777 58.7046 56.5777V56.9511C58.7046 57.1276 58.8715 57.3245 59.0781 57.3245H60.0006V48.626H58.7046V52.2613C58.7046 52.2613 58.1311 51.3937 56.8595 51.3937V51.3937ZM57.0904 52.5795C58.2226 52.5795 58.8165 53.5752 58.8165 54.4246C58.8165 55.3706 58.1114 56.269 57.0928 56.269C56.2413 56.269 55.3883 55.5794 55.3883 54.4121C55.3883 53.3584 56.1224 52.5795 57.0904 52.5795Z" fill="#31DEE9"/>
<path d="M52.4023 50.2749C52.8756 50.2749 53.2593 49.8912 53.2593 49.418C53.2593 48.9447 52.8756 48.561 52.4023 48.561C51.9291 48.561 51.5454 48.9447 51.5454 49.418C51.5454 49.8912 51.9291 50.2749 52.4023 50.2749Z" fill="#31DEE9"/>
<path d="M47.691 51.3916C46.2506 51.3916 44.6681 52.4668 44.6681 54.4145C44.6681 56.1894 46.016 57.4344 47.6879 57.4344C49.7483 57.4344 50.7544 55.778 50.7544 54.4258C50.7544 52.7664 49.4589 51.3916 47.691 51.3916ZM47.6957 52.6019C48.6918 52.6019 49.4348 53.4047 49.4348 54.4182C49.4348 55.4493 48.6461 56.2449 47.6987 56.2449C46.8192 56.2449 45.9643 55.5292 45.9643 54.4355C45.9643 53.3236 46.7774 52.6019 47.6957 52.6019Z" fill="#31DEE9"/>
<path d="M49.7624 29.2733L53.0783 23.5293C53.2654 23.2072 53.1523 22.7982 52.8346 22.6111C52.517 22.424 52.1036 22.5327 51.9208 22.8548L48.5614 28.6728C45.9983 27.5022 43.1133 26.8495 40.0106 26.8495C36.908 26.8495 34.0229 27.5022 31.4598 28.6728L28.1004 22.8548C27.9133 22.5327 27.5042 22.424 27.1822 22.6111C26.8602 22.7982 26.7514 23.2072 26.9385 23.5293L30.2544 29.2733C24.5365 32.3716 20.6636 38.1592 20.0239 44.9345H59.9973C59.3576 38.1591 55.4848 32.3715 49.7625 29.2733H49.7624ZM30.8332 39.321C29.9063 39.321 29.1578 38.5682 29.1578 37.6457C29.1578 36.7188 29.9106 35.9703 30.8332 35.9703C31.7601 35.9703 32.5085 36.7231 32.5085 37.6457C32.5129 38.5682 31.7601 39.321 30.8332 39.321ZM49.1837 39.321C48.2568 39.321 47.5084 38.5682 47.5084 37.6457C47.5084 36.7188 48.2612 35.9703 49.1837 35.9703C50.1106 35.9703 50.8591 36.7231 50.8591 37.6457C50.8634 38.5682 50.1106 39.321 49.1837 39.321Z" fill="#31DEE9"/>
</g>
<defs>
<clipPath id="clip0_113_266">
<rect width="40" height="40" fill="white" transform="translate(20 20)"/>
</clipPath>
</defs>
</svg>
