<svg width="80" height="80" viewBox="0 0 80 80" fill="none" xmlns="http://www.w3.org/2000/svg">
<rect width="80" height="80" rx="40" fill="white" fill-opacity="0.05"/>
<path d="M41.9916 33.3507V33.0249L40.9792 33.0945C40.6926 33.1126 40.4773 33.1735 40.3326 33.2764C40.1878 33.3802 40.1154 33.524 40.1154 33.7078C40.1154 33.8869 40.1869 34.0297 40.3307 34.1354C40.4735 34.2421 40.6659 34.2945 40.9059 34.2945C41.0592 34.2945 41.203 34.2707 41.3354 34.224C41.4678 34.1773 41.584 34.1116 41.6811 34.0278C41.7783 33.9449 41.8545 33.8459 41.9088 33.7307C41.964 33.6154 41.9916 33.4888 41.9916 33.3507ZM40.0002 20.2383C28.9726 20.2383 20.2383 28.9726 20.2383 40.0002C20.2383 51.0288 28.9726 59.7621 40.0002 59.7621C51.0278 59.7621 59.7621 51.0288 59.7621 40.0002C59.7621 28.9726 51.0288 20.2383 40.0002 20.2383ZM43.8364 31.9516C43.9297 31.6897 44.0611 31.4649 44.2316 31.2783C44.4021 31.0916 44.6069 30.9478 44.8469 30.8469C45.0869 30.7459 45.3545 30.6954 45.6488 30.6954C45.9145 30.6954 46.1545 30.7354 46.3678 30.8145C46.5821 30.8935 46.7649 31.0002 46.9183 31.1345C47.0716 31.2688 47.1935 31.4249 47.283 31.604C47.3726 31.783 47.4259 31.9726 47.444 32.1716H46.6507C46.6307 32.0621 46.5945 31.9592 46.543 31.8649C46.4916 31.7707 46.424 31.6888 46.3402 31.6192C46.2554 31.5497 46.1564 31.4954 46.043 31.4564C45.9288 31.4164 45.8011 31.3973 45.6573 31.3973C45.4888 31.3973 45.3354 31.4316 45.1992 31.4992C45.0621 31.5669 44.9449 31.663 44.8478 31.7869C44.7507 31.9107 44.6754 32.0621 44.6221 32.2392C44.5678 32.4173 44.5411 32.6145 44.5411 32.8316C44.5411 33.0564 44.5678 33.2583 44.6221 33.4354C44.6754 33.6135 44.7516 33.763 44.8507 33.8859C44.9488 34.0088 45.0678 34.103 45.2059 34.1678C45.344 34.2326 45.4964 34.2659 45.6621 34.2659C45.9335 34.2659 46.1545 34.2021 46.3259 34.0745C46.4973 33.9469 46.6078 33.7602 46.6592 33.5145H47.4535C47.4307 33.7316 47.3707 33.9297 47.2735 34.1088C47.1764 34.2878 47.0507 34.4402 46.8964 34.5669C46.7411 34.6935 46.5592 34.7916 46.3497 34.8602C46.1402 34.9288 45.9097 34.964 45.6592 34.964C45.3621 34.964 45.0945 34.9145 44.8535 34.8164C44.6135 34.7183 44.4069 34.5764 44.2354 34.3926C44.064 34.2088 43.9316 33.9849 43.8383 33.7211C43.7449 33.4573 43.6983 33.1611 43.6983 32.8307C43.6964 32.5078 43.743 32.2145 43.8364 31.9516ZM32.5478 30.7497H33.3421V31.4554H33.3573C33.4059 31.3383 33.4697 31.2326 33.5478 31.1411C33.6259 31.0488 33.7154 30.9707 33.8183 30.9049C33.9202 30.8392 34.0335 30.7897 34.1554 30.7554C34.2783 30.7211 34.4078 30.704 34.543 30.704C34.8345 30.704 35.0811 30.7735 35.2811 30.9126C35.4821 31.0516 35.6249 31.2516 35.7088 31.5126H35.7288C35.7821 31.3869 35.8526 31.2745 35.9392 31.1754C36.0259 31.0764 36.1259 30.9907 36.2383 30.9202C36.3507 30.8497 36.4745 30.7964 36.6088 30.7592C36.743 30.7221 36.884 30.704 37.0326 30.704C37.2373 30.704 37.423 30.7364 37.5907 30.8021C37.7583 30.8678 37.9011 30.9592 38.0202 31.0783C38.1392 31.1973 38.2307 31.3421 38.2945 31.5116C38.3583 31.6811 38.3907 31.8697 38.3907 32.0773V34.9164H37.5621V32.2764C37.5621 32.003 37.4916 31.7907 37.3507 31.6411C37.2107 31.4916 37.0097 31.4164 36.7488 31.4164C36.6211 31.4164 36.504 31.4392 36.3973 31.484C36.2916 31.5288 36.1992 31.5916 36.123 31.6726C36.0459 31.7526 35.9859 31.8497 35.943 31.9621C35.8992 32.0745 35.8773 32.1973 35.8773 32.3307V34.9164H35.0602V32.2078C35.0602 32.0878 35.0411 31.9792 35.004 31.8821C34.9669 31.7849 34.9145 31.7021 34.8449 31.6326C34.7764 31.563 34.6916 31.5107 34.5935 31.4735C34.4945 31.4364 34.384 31.4173 34.2611 31.4173C34.1335 31.4173 34.0154 31.4411 33.9059 31.4888C33.7973 31.5364 33.704 31.6021 33.6259 31.6859C33.5478 31.7707 33.4869 31.8697 33.444 31.9849C33.4021 32.0992 33.3335 32.2249 33.3335 32.3602V34.9154H32.5478V30.7497ZM34.3507 50.6916C30.7078 50.6916 28.423 48.1602 28.423 44.1202C28.423 40.0802 30.7078 37.5402 34.3507 37.5402C37.9935 37.5402 40.2697 40.0802 40.2697 44.1202C40.2697 48.1592 37.9935 50.6916 34.3507 50.6916ZM41.0954 34.9059C40.9611 34.9402 40.824 34.9573 40.683 34.9573C40.4754 34.9573 40.2859 34.9278 40.1135 34.8688C39.9402 34.8097 39.7926 34.7269 39.6688 34.6192C39.5449 34.5116 39.4478 34.3821 39.3792 34.2297C39.3097 34.0773 39.2754 33.9078 39.2754 33.7211C39.2754 33.3554 39.4116 33.0697 39.684 32.864C39.9564 32.6583 40.3507 32.5383 40.8678 32.5049L41.9916 32.4402V32.1183C41.9916 31.8783 41.9154 31.6945 41.763 31.5697C41.6107 31.4449 41.3954 31.3821 41.1164 31.3821C41.004 31.3821 40.8983 31.3964 40.8011 31.424C40.704 31.4526 40.6183 31.4926 40.544 31.5449C40.4697 31.5973 40.4078 31.6602 40.3602 31.7335C40.3116 31.8059 40.2783 31.8878 40.2602 31.9773H39.4811C39.4859 31.7935 39.5316 31.623 39.6173 31.4669C39.703 31.3107 39.8192 31.1754 39.9669 31.0602C40.1145 30.9449 40.2869 30.8554 40.4869 30.7916C40.6869 30.7278 40.904 30.6954 41.1392 30.6954C41.3926 30.6954 41.6221 30.7269 41.8278 30.7916C42.0335 30.8564 42.2097 30.9469 42.3554 31.0659C42.5011 31.1849 42.6135 31.3278 42.6926 31.4954C42.7716 31.663 42.8116 31.8507 42.8116 32.0573V34.9154H42.0183V34.2211H41.9983C41.9392 34.3335 41.8649 34.4354 41.7745 34.5259C41.683 34.6164 41.5811 34.6945 41.4678 34.7583C41.3535 34.8221 41.2297 34.8716 41.0954 34.9059ZM46.3364 50.6916C43.5583 50.6916 41.6697 49.2364 41.5383 46.9516H43.3469C43.4878 48.2573 44.7497 49.1221 46.4783 49.1221C48.1364 49.1221 49.3278 48.2573 49.3278 47.0754C49.3278 46.0526 48.604 45.4345 46.9288 45.0116L45.2964 44.6059C42.9497 44.024 41.883 42.9564 41.883 41.2011C41.883 39.0402 43.7707 37.5402 46.4611 37.5402C49.0897 37.5402 50.924 39.0488 50.9945 41.2183H49.204C49.0802 39.9126 48.0135 39.1097 46.4249 39.1097C44.8459 39.1097 43.7526 39.9211 43.7526 41.0945C43.7526 42.0202 44.4402 42.5678 46.1164 42.9907L47.4926 43.3345C50.1126 43.9697 51.1888 45.0021 51.1888 46.8545C51.1878 49.2183 49.3183 50.6916 46.3364 50.6916ZM34.3507 39.1621C31.8545 39.1621 30.2935 41.0764 30.2935 44.1192C30.2935 47.1535 31.8545 49.0678 34.3507 49.0678C36.8383 49.0678 38.4078 47.1535 38.4078 44.1192C38.4088 41.0764 36.8383 39.1621 34.3507 39.1621Z" fill="#31DEE9"/>
</svg>
