<svg width="80" height="80" viewBox="0 0 80 80" fill="none" xmlns="http://www.w3.org/2000/svg">
<rect width="80" height="80" rx="40" fill="white" fill-opacity="0.05"/>
<path d="M55.244 33.636C55.012 33.816 50.916 36.124 50.916 41.256C50.916 47.192 56.128 49.292 56.284 49.344C56.26 49.472 55.456 52.22 53.536 55.02C51.824 57.484 50.036 59.944 47.316 59.944C44.596 59.944 43.896 58.364 40.756 58.364C37.696 58.364 36.608 59.996 34.12 59.996C31.632 59.996 29.896 57.716 27.9 54.916C25.588 51.628 23.72 46.52 23.72 41.672C23.72 33.896 28.776 29.772 33.752 29.772C36.396 29.772 38.6 31.508 40.26 31.508C41.84 31.508 44.304 29.668 47.312 29.668C48.452 29.668 52.548 29.772 55.244 33.636ZM45.884 26.376C47.128 24.9 48.008 22.852 48.008 20.804C48.008 20.52 47.984 20.232 47.932 20C45.908 20.076 43.5 21.348 42.048 23.032C40.908 24.328 39.844 26.376 39.844 28.452C39.844 28.764 39.896 29.076 39.92 29.176C40.048 29.2 40.256 29.228 40.464 29.228C42.28 29.228 44.564 28.012 45.884 26.376Z" fill="#31DEE9"/>
</svg>
