<svg width="40" height="40" viewBox="0 0 40 40" fill="none" xmlns="http://www.w3.org/2000/svg">
<rect width="40" height="40" rx="20" fill="white" fill-opacity="0.05"/>
<path fill-rule="evenodd" clip-rule="evenodd" d="M26.1777 16.5965C26.1822 16.7314 26.1862 16.9822 26.1862 17.0068C26.1862 21.1891 23.0022 26.1422 17.5028 26.1422C15.3897 26.1422 13.8342 25.4908 12.3245 24.5925C12.6857 24.6199 12.824 24.6354 13.08 24.6354C14.564 24.6354 15.928 24.1302 17.012 23.2805C15.6262 23.2548 14.4565 22.3405 14.0542 21.0816C14.2485 21.1188 14.4462 21.1376 14.6508 21.1376C14.9382 21.1376 15.2182 21.0999 15.9885 21.0274C14.036 20.7376 12.9445 19.4576 12.9445 17.9228C12.9445 17.9114 12.9445 17.8965 12.9445 17.8822C13.3714 18.1205 13.8605 18.2628 14.3788 18.2788C13.5297 17.7125 12.9697 16.7411 12.9697 15.6445C12.9697 15.0645 13.1262 14.5194 13.3994 14.5251C14.9605 15.9679 17.2937 17.2285 19.9245 17.3605C19.8714 17.1296 19.8422 17.1651 19.8422 16.6388C19.8422 14.8891 21.2611 13.8736 23.008 13.8736C23.92 13.8736 24.7428 13.8576 25.32 14.4731C26.0417 14.3308 26.7188 14.0674 27.3308 13.7051C27.0942 14.4428 26.5914 15.0645 25.9394 15.4565C26.5788 15.3794 27.1891 15.2091 27.7571 14.9571C27.3325 15.5919 26.7954 16.1502 26.1777 16.5965Z" fill="white"/>
</svg>
