<svg width="40" height="40" viewBox="0 0 40 40" fill="none" xmlns="http://www.w3.org/2000/svg">
<rect width="40" height="40" rx="20" fill="white" fill-opacity="0.05"/>
<path d="M12.914 19.7331C12.914 19.7331 19.5045 17.0283 21.7902 16.076C22.6664 15.695 25.6379 14.476 25.6379 14.476C25.6379 14.476 27.0093 13.9426 26.895 15.2379C26.8569 15.7712 26.5521 17.6379 26.2474 19.6569C25.7902 22.5141 25.295 25.6379 25.295 25.6379C25.295 25.6379 25.2188 26.5141 24.5712 26.6664C23.9236 26.8188 22.8569 26.1331 22.6664 25.9807C22.514 25.8664 19.8093 24.1522 18.8188 23.3141C18.5521 23.0855 18.2474 22.6283 18.8569 22.095C20.2283 20.8379 21.8664 19.276 22.8569 18.2855C23.314 17.8283 23.7712 16.7617 21.8664 18.0569C19.1617 19.9236 16.495 21.676 16.495 21.676C16.495 21.676 15.8855 22.0569 14.7426 21.7141C13.5998 21.3712 12.2664 20.9141 12.2664 20.9141C12.2664 20.9141 11.3521 20.3426 12.914 19.7331Z" fill="white"/>
</svg>
