<svg width="40" height="40" viewBox="0 0 40 40" fill="none" xmlns="http://www.w3.org/2000/svg">
<rect width="40" height="40" rx="20" fill="white" fill-opacity="0.05"/>
<path fill-rule="evenodd" clip-rule="evenodd" d="M26.2602 14.6347C26.9456 14.823 27.4859 15.3742 27.6704 16.0734C28.0131 17.3507 27.9999 20.0129 27.9999 20.0129C27.9999 20.0129 27.9999 22.6616 27.6704 23.9389C27.4859 24.6381 26.9456 25.1894 26.2602 25.3776C25.0082 25.7137 20 25.7137 20 25.7137C20 25.7137 15.0049 25.7137 13.7397 25.3641C13.0544 25.1759 12.514 24.6247 12.3295 23.9255C12 22.6616 12 19.9994 12 19.9994C12 19.9994 12 17.3507 12.3295 16.0734C12.514 15.3742 13.0675 14.8095 13.7397 14.6213C14.9918 14.2852 20 14.2852 20 14.2852C20 14.2852 25.0082 14.2852 26.2602 14.6347ZM18.4052 17.5527L22.5699 19.9998L18.4052 22.4469V17.5527Z" fill="white"/>
</svg>
